<?xml version="1.0" encoding="UTF-8"?>
<!DOCTYPE svg PUBLIC "-//W3C//DTD SVG 1.1//EN" "http://www.w3.org/Graphics/SVG/1.1/DTD/svg11.dtd">
<svg xmlns="http://www.w3.org/2000/svg" version="1.1" width="182px" height="44px" style="shape-rendering:geometricPrecision; text-rendering:geometricPrecision; image-rendering:optimizeQuality; fill-rule:evenodd; clip-rule:evenodd" xmlns:xlink="http://www.w3.org/1999/xlink">
<g><path style="opacity:0.971" fill="#41bfff" d="M 9.5,-0.5 C 19.8333,-0.5 30.1667,-0.5 40.5,-0.5C 49.1812,4.20624 52.5145,11.5396 50.5,21.5C 52.5145,31.4604 49.1812,38.7938 40.5,43.5C 30.1667,43.5 19.8333,43.5 9.5,43.5C 5.16667,41.1667 1.83333,37.8333 -0.5,33.5C -0.5,25.5 -0.5,17.5 -0.5,9.5C 1.83333,5.16667 5.16667,1.83333 9.5,-0.5 Z"/></g>
<g><path style="opacity:1" fill="#f7fcff" d="M 23.5,11.5 C 28.6648,13.6013 32.9982,16.9346 36.5,21.5C 33.343,25.6541 29.5096,28.9875 25,31.5C 20.4904,28.9875 16.657,25.6541 13.5,21.5C 16.5481,17.7852 19.8815,14.4518 23.5,11.5 Z"/></g>
<g><path style="opacity:0.901" fill="#212529" d="M 58.5,12.5 C 62.1667,12.5 65.8333,12.5 69.5,12.5C 69.5,13.8333 69.5,15.1667 69.5,16.5C 62.4308,16.7433 62.0974,17.5766 68.5,19C 69.3366,20.0113 69.67,21.1779 69.5,22.5C 67.5,22.5 65.5,22.5 63.5,22.5C 63.5,23.5 63.5,24.5 63.5,25.5C 65.5,25.5 67.5,25.5 69.5,25.5C 69.5,26.8333 69.5,28.1667 69.5,29.5C 65.8333,29.5 62.1667,29.5 58.5,29.5C 58.5,23.8333 58.5,18.1667 58.5,12.5 Z"/></g>
<g><path style="opacity:0.892" fill="#212529" d="M 89.5,12.5 C 95.3684,11.0988 99.7017,12.9321 102.5,18C 99.3943,18.8438 96.561,18.3438 94,16.5C 89.3175,18.2135 88.4841,21.0469 91.5,25C 95.0749,24.396 98.7415,23.5626 102.5,22.5C 104.95,15.447 109.45,13.7803 116,17.5C 119.33,24.1359 117.497,28.4692 110.5,30.5C 106.386,30.3813 103.719,28.3813 102.5,24.5C 98.6068,30.5216 93.6068,31.6883 87.5,28C 83.1734,22.1435 83.8401,16.9768 89.5,12.5 Z M 109.5,19.5 C 113.267,21.326 113.433,23.326 110,25.5C 107.074,23.8564 106.907,21.8564 109.5,19.5 Z"/></g>
<g><path style="opacity:0.921" fill="#212529" d="M 119.5,15.5 C 122.262,16.3527 124.929,16.3527 127.5,15.5C 129.374,15.3898 130.874,16.0564 132,17.5C 135.696,14.5749 139.029,14.9083 142,18.5C 142.499,22.1516 142.665,25.8183 142.5,29.5C 140.833,29.5 139.167,29.5 137.5,29.5C 137.5,26.5 137.5,23.5 137.5,20.5C 136.167,20.5 134.833,20.5 133.5,20.5C 133.5,23.5 133.5,26.5 133.5,29.5C 131.833,29.5 130.167,29.5 128.5,29.5C 129.12,25.6983 128.286,22.365 126,19.5C 123.836,22.4473 123.002,25.7806 123.5,29.5C 122.167,29.5 120.833,29.5 119.5,29.5C 119.5,24.8333 119.5,20.1667 119.5,15.5 Z"/></g>
<g><path style="opacity:0.883" fill="#212529" d="M 144.5,15.5 C 147.48,16.025 150.313,16.025 153,15.5C 154.711,15.4393 156.044,16.1059 157,17.5C 160.043,15.0922 163.209,14.9255 166.5,17C 167.464,21.0659 167.797,25.2325 167.5,29.5C 165.833,29.5 164.167,29.5 162.5,29.5C 162.905,25.9521 162.405,22.6188 161,19.5C 158.752,22.3512 157.918,25.6845 158.5,29.5C 156.833,29.5 155.167,29.5 153.5,29.5C 153.5,26.5 153.5,23.5 153.5,20.5C 152.167,20.5 150.833,20.5 149.5,20.5C 149.5,23.5 149.5,26.5 149.5,29.5C 147.833,29.5 146.167,29.5 144.5,29.5C 144.5,24.8333 144.5,20.1667 144.5,15.5 Z"/></g>
<g><path style="opacity:1" fill="#56c4ff" d="M 24.5,17.5 C 26.1477,18.8098 27.8144,20.1431 29.5,21.5C 27.8513,22.6477 26.3513,23.981 25,25.5C 23.6487,23.981 22.1487,22.6477 20.5,21.5C 22.188,20.4787 23.5213,19.1454 24.5,17.5 Z"/></g>
<g><path style="opacity:0.361" fill="#202428" d="M 71.5,18.5 C 75.1667,18.5 78.8333,18.5 82.5,18.5C 82.5,20.1667 82.5,21.8333 82.5,23.5C 78.8333,23.5 75.1667,23.5 71.5,23.5C 71.5,21.8333 71.5,20.1667 71.5,18.5 Z"/></g>
</svg>
